<svg class="og-svg-root" version="1.1" xmlns="http://www.w3.org/2000/svg" xmlns:xlink="http://www.w3.org/1999/xlink" x="0px" y="0px" viewBox="0 0 795.5 359.2" xml:space="preserve">
<g id="ownership" class="">
    <g class="og-svg-segment" id="governance">
        <path id="segment" d="M287.3,72.6l-58.1,58.1
            c12.1,12.4,19.5,29.4,19.5,48.1c0,19-7.7,36.2-20.1,48.7l58.7,58.7c27.1-27.5,43.9-65.2,43.9-106.8
            C331.1,137.8,314.4,100.1,287.3,72.6z" class=""></path>
        <text transform="matrix(1 0 0 1 251.8188 216.9736)" fill="#FFFFFF" font-family="'ArialMT', 'PwC Helvetica Neue', Arial" font-size="11px">Governance</text>
        <g class="og-svg-icon">
            <path fill="#FFFFFF" d="M299.2,174.2l-5.4-10.6h-4.2h-4.2v-3.6h-1.7v3.6h-8h-0.5l-5.4,10.6v0.9c0,3.3,2.7,5.9,5.9,5.9
                c3.3,0,5.9-2.7,5.9-5.9v-0.9l-4.5-8.9h6.6v20.8h-6.2v1.7h14.2v-1.7h-6.2v-20.8h4.2h2.3l-4.5,8.9v0.8c0,3.3,2.7,5.9,5.9,5.9
                c3.3,0,5.9-2.7,5.9-5.9V174.2z M275.7,179.3c-2,0-3.7-1.4-4.1-3.4h8.2C279.4,177.9,277.7,179.3,275.7,179.3z M271.7,174.2l4-7.8
                l4,7.8H271.7z M293.3,166.4l4,7.8h-8L293.3,166.4z M293.3,179.3c-2,0-3.7-1.4-4.1-3.4h8.2C297.1,177.9,295.4,179.3,293.3,179.3z"></path>
        </g>
    </g>
    <g class="og-svg-segment" id="wealth">
        <path id="segment_1_" d="M179.5,109.7c18.8,0,35.8,7.5,48.3,19.6
            l58.1-58.1C258.4,44.1,220.7,27.4,179,27.4c-41.6,0-79.4,16.7-106.8,43.9l58.6,58.6C143.3,117.4,160.5,109.7,179.5,109.7z" class=""></path>
        <text transform="matrix(1 0 0 1 161.1263 89.1478)" fill="#FFFFFF" font-family="'ArialMT', 'PwC Helvetica Neue', Arial" font-size="11px">Wealth</text>
        <g class="og-svg-icon">
            <path fill="#FFFFFF" d="M194.5,47.2h-25.7v4h-3.7v14.4h17.7v1.9c0,1.6,2.1,2.8,4.7,2.8c2.6,0,4.7-1.2,4.7-2.8v-5.9h2.4V47.2z
                 M166.6,52.7h22.7v4.7c-0.6-0.1-1.2-0.2-1.8-0.2c-2.6,0-4.7,1.2-4.7,2.8v4.1h-16.2V52.7z M190.9,60c0,0.7-1.5,1.6-3.5,1.6
                c-2,0-3.5-0.8-3.5-1.6c0-0.7,1.5-1.6,3.5-1.6C189.5,58.4,190.9,59.3,190.9,60z M187.5,69.1c-2,0-3.5-0.8-3.5-1.6v-0.6
                c0.8,0.6,2.1,0.9,3.5,0.9s2.6-0.3,3.5-0.9v0.6C190.9,68.3,189.5,69.1,187.5,69.1z M187.5,66.6c-2,0-3.5-0.8-3.5-1.6v-0.5
                c0.8,0.6,2.1,0.9,3.5,0.9s2.6-0.3,3.5-0.9V65C190.9,65.7,189.5,66.6,187.5,66.6z M187.5,64.1c-2,0-3.5-0.8-3.5-1.6v-0.7
                c0.8,0.6,2.1,0.9,3.5,0.9s2.6-0.3,3.5-0.9v0.7C190.9,63.3,189.5,64.1,187.5,64.1z M193,60.1h-0.9V60c0-0.8-0.5-1.5-1.3-2v-6.8
                h-20.5v-2.5H193V60.1z"></path>
            <path fill="#FFFFFF" d="M177.9,53.8c-2,0-3.5,2-3.5,4.7s1.5,4.7,3.5,4.7s3.5-2,3.5-4.7S179.9,53.8,177.9,53.8z M177.9,61.7
                c-1.2,0-2.1-1.5-2.1-3.3c0-1.8,1-3.3,2.1-3.3c1.2,0,2.1,1.5,2.1,3.3C180.1,60.2,179.1,61.7,177.9,61.7z"></path>
        </g>
    </g>
    <g class="og-svg-segment" id="purpose">
        <path id="segment_2_" d="M227.1,228.9c-12.4,11.8-29.2,19-47.6,19
            c-18.7,0-35.6-7.4-48.1-19.5l-59.2,59.2c27.5,27.1,65.2,43.9,106.8,43.9c41.6,0,79.4-16.7,106.8-43.9L227.1,228.9z" class=""></path>
        <text transform="matrix(1 0 0 1 125.762 309.7998)" fill="#FFFFFF" font-family="'ArialMT', 'PwC Helvetica Neue', Arial" font-size="11px">Purpose and Values</text>
        <g class="og-svg-icon">
            <path fill="#FFFFFF" d="M180.1,276.3l8.8,2.2l-0.7,0.7l-1.3,1.3l1.3,1.3l3.7,3.7l-2.6,2.6l-3.7-3.7l-1.3-1.3l-1.3,1.3l-0.7,0.7
                L180.1,276.3 M177.6,273.8l3.7,14.9l3-3l5,5l5.2-5.2l-5-5l3-3L177.6,273.8L177.6,273.8z"></path>
            <path fill="#FFFFFF" d="M178.2,284c-0.3,0-0.6,0-0.8,0c-5.8,0-10.5-4.7-10.5-10.5c0-5.8,4.7-10.5,10.5-10.5s10.5,4.7,10.5,10.5
                c0,0.3,0,0.6,0,0.9l1.8,0.5c0-0.4,0.1-0.9,0.1-1.3c0-6.8-5.5-12.3-12.3-12.3s-12.3,5.5-12.3,12.3s5.5,12.3,12.3,12.3
                c0.4,0,0.9,0,1.3-0.1L178.2,284z"></path>
            <path fill="#FFFFFF" d="M177.2,280c-3.5-0.1-6.3-2.9-6.3-6.4c0-3.6,2.9-6.5,6.5-6.5c3.5,0,6.4,2.8,6.4,6.3l1.8,0.5
                c0-0.1,0-0.2,0-0.3c0-4.6-3.7-8.3-8.3-8.3c-4.6,0-8.3,3.7-8.3,8.3s3.7,8.3,8.3,8.3c0.1,0,0.2,0,0.3,0L177.2,280z"></path>
        </g>
    </g>
    <g class="og-svg-segment" id="continuity">
        <path id="segment_3_" d="M110.4,178.8c0-18.5,7.2-35.2,19-47.6L70.8,72.6
            c-27.1,27.5-43.9,65.2-43.9,106.8c0,41.6,16.7,79.4,43.9,106.8l59.2-59.2C117.9,214.6,110.4,197.6,110.4,178.8z" class=""></path>
        <text transform="matrix(1 0 0 1 48.0815 216.9736)" fill="#FFFFFF" font-family="'ArialMT', 'PwC Helvetica Neue', Arial" font-size="11px">Continuity</text>
        <g class="og-svg-icon">
            <path fill="#FFFFFF" d="M74.5,174.1c2.9,0,5.2-2.3,5.2-5.2s-2.3-5.2-5.2-5.2c-2.9,0-5.2,2.3-5.2,5.2S71.6,174.1,74.5,174.1z
                 M74.5,165.6c1.8,0,3.3,1.5,3.3,3.3s-1.5,3.3-3.3,3.3c-1.8,0-3.3-1.5-3.3-3.3S72.6,165.6,74.5,165.6z M65.2,176.6
                c2.4,0,4.3-1.9,4.3-4.3c0-2.4-1.9-4.3-4.3-4.3s-4.3,1.9-4.3,4.3C60.9,174.7,62.8,176.6,65.2,176.6z M65.2,169.8
                c1.4,0,2.5,1.1,2.5,2.5s-1.1,2.5-2.5,2.5s-2.5-1.1-2.5-2.5S63.9,169.8,65.2,169.8z M84.3,176.6c2.4,0,4.3-1.9,4.3-4.3
                s-1.9-4.3-4.3-4.3c-2.4,0-4.3,1.9-4.3,4.3S81.9,176.6,84.3,176.6z M84.3,169.8c1.4,0,2.5,1.1,2.5,2.5s-1.1,2.5-2.5,2.5
                s-2.5-1.1-2.5-2.5S82.9,169.8,84.3,169.8z M83.5,178.1c-0.6,0-1.3,0.1-1.9,0.1v-0.4l-0.5-0.3c-1.8-0.9-4-1.4-6.4-1.4
                c-2.3,0-4.5,0.5-6.3,1.4l-0.5,0.3v0.4c-0.6-0.1-1.2-0.1-1.9-0.1c-1.9,0-3.6,0.4-5.1,1.1l-0.5,0.3v8.4h7.5v0h11.8v0h9.4v-8.4
                l-0.5-0.3C87.1,178.5,85.3,178.1,83.5,178.1z M62.3,186v-5.4c1.6-0.7,3.7-0.9,5.6-0.5v5.9H62.3z M69.8,186V179
                c1.4-0.6,3.1-0.9,4.9-0.9c1.8,0,3.6,0.3,5,1v7H69.8z M87.2,186h-5.6v-5.9c1.9-0.3,4-0.1,5.6,0.5V186z"></path>
        </g>
    </g>

    <g class="og-svg-center">
        <circle fill="#FFFFFF" cx="179.5" cy="179.2" r="66"></circle>
        <g>
            <path fill="#1E95E0" d="M194.9,160c-5.5,0-10.8,1.1-15.2,3.1c-4.4-2-9.7-3.1-15.2-3.1c-5.9,0-11.6,1.3-16.1,3.6l-1.2,0.6v25h30.4
                h4.5h30.4v-24.9l-1.2-0.6C206.7,161.3,200.8,160,194.9,160z M151.5,184.9v-18c3.8-1.6,8.3-2.5,13-2.5s9.3,0.9,13.1,2.6v18h-26.1
                V184.9z M208.1,184.9H182v-18.1c3.7-1.6,8.2-2.5,12.8-2.5c4.8,0,9.5,0.9,13.3,2.6V184.9z"></path>
            <path fill="#1E95E0" d="M194.2,156.1c7.3,0,13.2-5.9,13.2-13.2s-5.9-13.2-13.2-13.2s-13.2,5.9-13.2,13.2
                C181,150.1,186.9,156.1,194.2,156.1z M194.2,133.9c4.9,0,8.9,4,8.9,8.9s-4,8.9-8.9,8.9s-8.9-4-8.9-8.9S189.3,133.9,194.2,133.9z"></path>
            <path fill="#1E95E0" d="M163.9,156.1c7.3,0,13.2-5.9,13.2-13.2s-5.9-13.2-13.2-13.2s-13.2,5.9-13.2,13.2
                C150.7,150.1,156.6,156.1,163.9,156.1z M163.9,133.9c4.9,0,8.9,4,8.9,8.9s-4,8.9-8.9,8.9s-8.9-4-8.9-8.9S158.9,133.9,163.9,133.9
                z"></path>
        </g>
        <text transform="matrix(1 0 0 1 155.6004 207.1074)" fill="#231F20" font-family="'Arial-BoldMT', 'PwC Helvetica Neue', Arial" font-size="13px">Manage</text>
        <text transform="matrix(1 0 0 1 146.2004 221.5074)" fill="#231F20" font-family="'Arial-BoldMT', 'PwC Helvetica Neue', Arial" font-size="13px">Ownership</text>
    </g>
</g>

<g id="business" class="">
    <g class="og-svg-segment" id="deals">
        <path id="segment_4_" d="M616.1,109.6c21,0.5,39.7,10.4,52,25.6
            l64.6-51.9c-27.6-34.3-69.8-56.3-117.2-56.6L616.1,109.6z" class=""></path>
        <text transform="matrix(1 0 0 1 630.0027 93.0027)">
            <tspan x="1" y="0" fill="#FFFFFF" font-family="'ArialMT', 'PwC Helvetica Neue', Arial" font-size="11px">Deals and </tspan>
            <tspan x="9.3" y="14" fill="#FFFFFF" font-family="'ArialMT', 'PwC Helvetica Neue', Arial" font-size="11px">Growth</tspan>
        </text>
        <g class="og-svg-icon">
            <path fill="#FFFFFF" d="M661.9,47.9v8h-8.1v6.6h-8.1v11.8h26V47.9H661.9z M647.4,64.3h6.4v8.3h-6.4V64.3z M655.5,72.6V57.6h6.4
                v14.9H655.5z M669.9,72.6h-6.4V49.6h6.4V72.6z"></path>
        </g>
    </g>
    <g class="og-svg-segment" id="digital">
        <path id="segment_5_" d="M561.3,134.5c12.6-15.2,31.6-24.8,52.8-24.9
            l-0.6-82.9C566.1,27,523.9,49,496.2,83.2L561.3,134.5z" class=""></path>
        <g>
            <text transform="matrix(0.95 0 0 1 542.6342 93.0029)">
                <tspan x="-4" y="0" fill="#FFFFFF" font-family="'ArialMT', 'PwC Helvetica Neue', Arial" font-size="11px">Strategy and</tspan>
                <tspan x="-11.2" y="14" fill="#FFFFFF" font-family="'ArialMT', 'PwC Helvetica Neue', Arial" font-size="11px">Transformation</tspan>
            </text>
        </g>
        <g class="og-svg-icon">
            <path fill="#FFFFFF" d="M569.3,62.5c1.6,0,2.8-1.3,2.8-2.8c0-1.6-1.3-2.8-2.8-2.8c-1.6,0-2.8,1.3-2.8,2.8
                C566.5,61.3,567.8,62.5,569.3,62.5z M569.3,58.4c0.7,0,1.3,0.6,1.3,1.3S570,61,569.3,61s-1.3-0.6-1.3-1.3S568.6,58.4,569.3,58.4z
                "></path>
            <path fill="#FFFFFF" d="M561.5,62.1l1.4,0.4c0.2,0.5,0.5,0.9,0.8,1.3l-0.4,1.4c-0.1,0.4,0.1,0.9,0.4,1.1l2.6,1.5
                c0.4,0.2,0.9,0.1,1.1-0.2l1-1.1c0.6,0.1,1,0.1,1.5,0l1,1.1c0.2,0.2,0.4,0.3,0.7,0.3c0.2,0,0.3,0,0.5-0.1l2.6-1.5
                c0.4-0.2,0.6-0.7,0.4-1.1l-0.4-1.4c0.3-0.4,0.6-0.9,0.8-1.3l1.4-0.4c0.4-0.1,0.7-0.5,0.7-0.9v-3.1c0-0.4-0.3-0.8-0.7-0.9
                l-1.4-0.4c-0.2-0.5-0.5-0.9-0.8-1.3l0.4-1.4c0.1-0.4-0.1-0.9-0.4-1.1l-2.6-1.5c-0.4-0.2-0.9-0.1-1.1,0.2l-1,1.1
                c-0.5-0.1-1-0.1-1.5,0l-1-1.1c-0.3-0.3-0.8-0.4-1.1-0.2l-2.6,1.5c-0.4,0.2-0.6,0.7-0.4,1.1l0.4,1.4c-0.3,0.4-0.6,0.9-0.8,1.3
                l-1.4,0.4c-0.4,0.1-0.7,0.5-0.7,0.9v3.1C560.8,61.7,561.1,62,561.5,62.1z M565.4,55.9l-0.5-1.7l1.8-1.1l1.2,1.3l0.6-0.1
                c0.5-0.1,0.8-0.1,1.4,0l0.6,0.1l1.2-1.3l1.8,1.1l-0.5,1.7l0.4,0.5c0.3,0.4,0.5,0.8,0.7,1.2l0.2,0.6l1.7,0.4v2.1l-1.7,0.4
                l-0.2,0.6c-0.2,0.4-0.4,0.8-0.7,1.2l-0.4,0.5l0.5,1.7l-1.8,1.1l-1.2-1.3l-0.6,0.1c-0.5,0.1-0.8,0.1-1.4,0L568,65l-1.2,1.3
                l-1.8-1.1l0.5-1.7L565,63c-0.3-0.4-0.5-0.8-0.7-1.2l-0.2-0.6l-1.7-0.4v-2.1l1.7-0.4l0.2-0.6c0.2-0.4,0.4-0.8,0.7-1.2L565.4,55.9z
                "></path>
            <path fill="#FFFFFF" d="M581.9,47.9h-26.1v22.6h26.1V47.9z M580.2,68.9h-22.7V49.6h22.7V68.9z"></path>
            <rect x="554.3" y="72.6" fill="#FFFFFF" width="29.5" height="1.7"></rect>
        </g>
    </g>
    <g class="og-svg-segment" id="profitability">
        <path id="segment_6_" d="M762.9,210.9c2.3-10.4,3.4-21.2,3.4-32.3
            c0-35.3-12.1-67.9-32.3-93.7l-64.6,51.9c8.8,11.6,14.1,26.1,14.1,41.8c0,4.8-0.5,9.5-1.4,14L762.9,210.9z" class=""></path>
        <g>
            <text transform="matrix(1 0 0 1 692.9883 180.0191)" fill="#FFFFFF" font-family="'ArialMT', 'PwC Helvetica Neue', Arial" font-size="11px">Profitability</text>
        </g>
        <g class="og-svg-icon">
            <path fill="#FFFFFF" d="M737,150c-0.3-1.4-0.5-2.1-0.5-2.1l0-0.1l-0.1-0.1c-0.4-0.4-0.4-0.4-8.5,0.5c0-0.9-0.7-1.5-1.5-1.6
                l-8.3-1l-1.3-1l-9.1-2.4v11.3l0.7,0.2c2.3,0.7,6,1.8,7,2.2c0.3,0.2,0.7,0.2,1.2,0.2c0.2,0,0.4,0,0.7,0c0.8,0,1.8,0,2.8,0
                c2,0,4.1-0.1,4.1-0.1l0.2,0l11.6-3.9C736.7,151.7,737.2,150.9,737,150z M709.6,144.8l6.1,1.6l1.4,1.1l8.6,1l0,1.3h-9.2v2.1h9.2
                c1,0,1.8-0.7,1.9-1.7c2.4-0.3,5.6-0.6,7.1-0.7c0,0.2,0.1,0.4,0.1,0.6l-11.1,3.7c-2.8,0.1-7,0.2-7.7,0.1c-0.8-0.3-2.4-0.8-6.6-2.1
                V144.8z"></path>
            <g>
                <path fill="#FFFFFF" d="M723.3,139c-1,0-1.9-0.4-2.7-1.1c-0.7-0.7-1.1-1.7-1.1-2.7c0-1,0.4-2,1.1-2.7c0.7-0.7,1.7-1.1,2.7-1.1
                    c1,0,2,0.4,2.7,1.1c0.7,0.7,1.1,1.7,1.1,2.7l0,0c0,1-0.4,2-1.1,2.7C725.3,138.6,724.3,139,723.3,139
                    C723.3,139,723.3,139,723.3,139z M723.3,133.4C723.3,133.4,723.3,133.4,723.3,133.4c-0.5,0-1,0.2-1.3,0.6
                    c-0.3,0.4-0.5,0.8-0.5,1.3c0,0.5,0.2,1,0.6,1.3c0.4,0.3,0.8,0.5,1.3,0.5c0.5,0,1-0.2,1.3-0.6s0.5-0.8,0.5-1.3l0,0
                    c0-0.5-0.2-1-0.6-1.3C724.2,133.6,723.8,133.4,723.3,133.4z"></path>
                <path fill="#FFFFFF" d="M711.2,142l-0.1-12.9l23.1-0.2l0.1,12.9L711.2,142z M713.1,131.1l0.1,9l19.2-0.1l-0.1-9L713.1,131.1z"></path>
            </g>
        </g>
    </g>
    <g class="og-svg-segment" id="risk">
        <path id="segment_7_" d="M643.9,241.1c-8.9,4.2-18.9,6.6-29.5,6.6
            c-10.1,0-19.6-2.2-28.3-6.1l-36.3,74.6c19.6,9.2,41.4,14.4,64.5,14.4c23.2,0,45.1-5.2,64.8-14.5L643.9,241.1z" class=""></path>
        <text transform="matrix(1 0 0 1 591.9095 304.8325)"><tspan x="0" y="0" fill="#FFFFFF" font-family="'ArialMT', 'PwC Helvetica Neue', Arial" font-size="11px">Risk and</tspan><tspan x="-5.3" y="14" fill="#FFFFFF" font-family="'ArialMT', 'PwC Helvetica Neue', Arial" font-size="11px">Regulatory</tspan></text>
        <g class="og-svg-icon">
            <path fill="#FFFFFF" d="M624.8,258.8h-2.6v1.7h2.6v22.6h-19.1v-22.6h2.6v-1.7h-2.6c-1,0-1.7,0.8-1.7,1.7v22.6c0,1,0.8,1.7,1.7,1.7
                h19.1c1,0,1.7-0.8,1.7-1.7v-22.6C626.5,259.6,625.8,258.8,624.8,258.8L624.8,258.8z M610,258.8h10.4v-1.7H610V258.8z M609.8,271
                c-0.5,0-0.9,0.4-0.9,0.9s0.4,0.9,0.9,0.9h10.9c0.5,0,0.9-0.4,0.9-0.9s-0.4-0.9-0.9-0.9H609.8z M609.8,266.3
                c-0.5,0-0.9,0.4-0.9,0.9c0,0.5,0.4,0.9,0.9,0.9h10.9c0.5,0,0.9-0.4,0.9-0.9c0-0.5-0.4-0.9-0.9-0.9H609.8z"></path>
        </g>
    </g>
    <g class="og-svg-segment" id="talent">
        <path id="segment_8_" d="M681.6,194.6c-4.7,19.9-18.1,36.5-35.9,45.6
            l35.3,75c40.6-19.8,71.1-57.2,81.5-102.3L681.6,194.6z" class=""></path>
        <g>
            <text transform="matrix(1 0 0 1 681.6485 270.9583)" fill="#FFFFFF" font-family="'ArialMT', 'PwC Helvetica Neue', Arial" font-size="11px">Talent</text>
        </g>
        <g class="og-svg-icon">
            <g>
                <path fill="#FFFFFF" d="M709,242.3c-3-1.3-6.5-2-10.3-2c-3.6,0-7,0.7-9.9,1.8l1.5,2c2.5-0.9,5.4-1.4,8.4-1.4
                    c3.2,0,6.2,0.6,8.8,1.5L709,242.3z"></path>
                <path fill="#FFFFFF" d="M698.8,238.4c3.4,0,6.1-2.9,6.1-6.5c0-3.6-2.7-6.5-6.1-6.5c-3.4,0-6.1,2.9-6.1,6.5
                    C692.7,235.5,695.4,238.4,698.8,238.4z M698.8,227.4c2.3,0,4.2,2,4.2,4.5c0,2.5-1.9,4.5-4.2,4.5c-2.3,0-4.2-2-4.2-4.5
                    C694.5,229.4,696.4,227.4,698.8,227.4z"></path>
            </g>
            <path fill="#FFFFFF" d="M714.5,252.6l-6.3-6.7c2.9-2.6,4.8-6.4,4.8-10.6c0-7.8-6.3-14.1-14-14.1s-14,6.3-14,14.1
                c0,7.8,6.3,14.1,14,14.1c2.8,0,5.4-0.8,7.6-2.3l6.5,6.9L714.5,252.6z M687,235.4c0-6.7,5.4-12.1,12-12.1c6.6,0,12,5.4,12,12.1
                c0,6.7-5.4,12.1-12,12.1C692.4,247.5,687,242,687,235.4z"></path>
        </g>
    </g>
    <g class="og-svg-segment" id="ownership">
        <path id="segment_9_" d="M546.9,193.3c-1-4.7-1.6-9.6-1.6-14.7
            c0-16.1,5.5-30.8,14.7-42.6L495,84.8c-20.3,25.8-32.5,58.5-32.5,93.9c0,11.2,1.2,22,3.5,32.5L546.9,193.3z" class=""></path>
        <g>
            <text transform="matrix(1 0 0 1 468 175)" fill="#FFFFFF" font-family="'ArialMT', 'PwC Helvetica Neue', Arial" font-size="11px">Ownership and</text>
            <text transform="matrix(1 0 0 1 473 189.5)" fill="#FFFFFF" font-family="'ArialMT', 'PwC Helvetica Neue', Arial" font-size="11px">Stakeholders</text>
        </g>
        <g class="og-svg-icon">
            <path fill="#FFFFFF" d="M511.7,142.9c-2.5,0-4.9,0.5-6.9,1.4c-2-0.9-4.4-1.4-6.9-1.4c-2.6,0-5.2,0.6-7.3,1.6l-0.5,0.3v11.3h13.7
                h2h13.7v-11.2l-0.5-0.3C517,143.5,514.4,142.9,511.7,142.9z M492.1,154.1V146c1.7-0.7,3.8-1.1,5.9-1.1c2.1,0,4.2,0.4,5.9,1.2v8.1
                H492.1z M517.7,154.1h-11.8v-8.2c1.7-0.7,3.7-1.1,5.8-1.1c2.2,0,4.3,0.4,6,1.2V154.1z"></path>
            <path fill="#FFFFFF" d="M511.4,141.1c3.3,0,6-2.7,6-6c0-3.3-2.7-6-6-6s-6,2.7-6,6C505.5,138.4,508.1,141.1,511.4,141.1z
                 M511.4,131.1c2.2,0,4,1.8,4,4s-1.8,4-4,4c-2.2,0-4-1.8-4-4S509.2,131.1,511.4,131.1z"></path>
            <path fill="#FFFFFF" d="M497.7,141.1c3.3,0,6-2.7,6-6c0-3.3-2.7-6-6-6c-3.3,0-6,2.7-6,6C491.7,138.4,494.4,141.1,497.7,141.1z
                 M497.7,131.1c2.2,0,4,1.8,4,4s-1.8,4-4,4s-4-1.8-4-4S495.5,131.1,497.7,131.1z"></path>
        </g>
    </g>
    <g class="og-svg-segment" id="capital">
        <path id="segment_10_" d="M584.3,240.8c-18.2-8.8-32-25.5-36.9-45.5
            l-81,17.9c10.5,45.1,41,82.4,81.7,102.2L584.3,240.8z" class=""></path>
        <text transform="matrix(1 0 0 1 513.8817 270.9583)" fill="#FFFFFF" font-family="'ArialMT', 'PwC Helvetica Neue', Arial" font-size="11px">Capital</text>
        <g class="og-svg-icon">
            <path fill="#FFFFFF" d="M546,232.6h1.3v-3.7l-14.6-7.7l-14.8,7.8v3.6h1.3v17h-1.3v2.1h29.4v-2.1H546V232.6z M543.9,249.5h-6.2v-17
                h6.2V249.5z M535.7,232.6v17h-6.2v-17H535.7z M519.9,230.2l12.8-6.7l12.6,6.7l0,0.3h-25.4V230.2z M521.2,232.6h6.2v17h-6.2V232.6z
                "></path>
        </g>
    </g>
    <g class="og-svg-center">
        <circle fill="#FFFFFF" cx="614.4" cy="179.1" r="66"></circle>
        <text transform="matrix(1 0 0 1 591.0527 207.269)" fill="#231F20" font-family="'Arial-BoldMT', 'PwC Helvetica Neue', Arial" font-size="13px">Manage</text>
        <text transform="matrix(1 0 0 1 586.3527 221.669)" fill="#231F20" font-family="'Arial-BoldMT', 'PwC Helvetica Neue', Arial" font-size="13px">Business</text>
        <g class="og-svg-icon">
            <path fill="#E0301E" d="M615.6,185.5v-3.8c1.6,0.6,3.4,1,5.4,1c3.4,0,7.1-1,10.7-2.8c6.5-3.5,10.8-9.4,10.7-14.6v-0.9l-0.8-0.5
                c-4.3-3-11.6-2.7-18.1,0.7c-3.2,1.7-5.9,4-7.8,6.6v-8.8c4.2-2.7,6.9-8.9,6.9-15.8c0-7.4-3.2-14-7.9-16.3l-0.8-0.4l-0.8,0.4
                c-4.7,2.4-7.9,9-7.8,16.4c0,6.8,2.7,12.9,6.8,15.7v2.7c-1.4-2.3-3.4-4.4-5.8-6.3c-5.9-4.5-13-5.9-17.8-3.6l-0.8,0.4l-0.2,0.9
                c-1,5.2,2.4,11.7,8.3,16.2c4,3.1,8.6,4.7,12.7,4.7c1.3,0,2.5-0.2,3.7-0.5v8.9h-23.4v3.7h54.9v-3.7h-28.1L615.6,185.5L615.6,185.5z
                 M625.1,167.7c4.8-2.6,10.1-3.1,13.4-1.5c-0.5,3.6-3.9,7.7-8.7,10.3s-10.1,3.1-13.4,1.5C616.9,174.4,620.3,170.3,625.1,167.7z
                 M597.8,169.4c-4.3-3.3-7.1-7.9-7-11.6c3.5-1.1,8.7,0.3,13,3.6s7.1,7.9,7,11.6C607.3,174.1,602.1,172.7,597.8,169.4z M608.8,146.4
                c0-5.4,2-10.4,5-12.5c3,2.1,5,7.1,5,12.5s-2,10.4-5,12.5C610.8,156.8,608.8,151.9,608.8,146.4z"></path>
        </g>
    </g>
</g>
<g id="Infinity_sign">
    <g>
        <g>
            <g>
                <path fill="#e0301e" d="M615.9,0v19c88.5,0,160.6,72,160.6,160.6c0,88.5-72,160.6-160.6,160.6v19c99,0,179.6-80.6,179.6-179.6
                    C795.5,80.6,714.9,0,615.9,0z"></path>
            </g>
            <g>
                <linearGradient id="SVGID_1_" gradientUnits="userSpaceOnUse" x1="170.0791" y1="179.5786" x2="625.417" y2="179.5786">
                    <stop offset="1.075279e-02" style="stop-color:#EC8D24"></stop>
                    <stop offset="1" style="stop-color:#e0301e"></stop>
                </linearGradient>
                <path fill="url(#SVGID_1_)" d="M615.9,0c-47.3,0-84.8,13.1-118.2,41.3c-29.3,24.7-51.7,58-75.4,93.3
                    c-10.2,15.2-20.7,30.9-32.2,46.3c-3.3,4.5-6.6,9-9.9,13.4c-57.5,78.3-107.1,145.8-200.6,145.8c-5.2,0-9.5,4.3-9.5,9.5
                    s4.3,9.5,9.5,9.5c103.1,0,157.9-74.6,215.9-153.6c3.3-4.5,6.6-8.9,9.9-13.4c11.7-15.8,22.3-31.7,32.7-47
                    C485.4,74.7,522.9,19,615.9,19c5.2,0,9.5-4.3,9.5-9.5S621.2,0,615.9,0z"></path>
            </g>
            <linearGradient id="SVGID_2_" gradientUnits="userSpaceOnUse" x1="423.4074" y1="164.299" x2="375.3765" y2="192.0297">
                <stop offset="5.376936e-03" style="stop-color:#1e95e0;stop-opacity:0.1"></stop>
                <stop offset="0.4133" style="stop-color:#D05A27;stop-opacity:0.8159"></stop>
                <stop offset="0.5181" style="stop-color:#D05D27"></stop>
            </linearGradient>
            <polygon fill="url(#SVGID_2_)" points="422.2,168.5 408.2,155.4 391.1,179.5 405.2,192.4          "></polygon>
            
                <linearGradient id="SVGID_3_" gradientUnits="userSpaceOnUse" x1="379.4399" y1="-566.337" x2="331.2501" y2="-538.5145" gradientTransform="matrix(-1 0 0 -1 746.9959 -351.8778)">
                <stop offset="5.376936e-03" style="stop-color:#1e95e0;stop-opacity:0.1"></stop>
                <stop offset="0.4133" style="stop-color:#D05A27;stop-opacity:0.8159"></stop>
                <stop offset="0.5181" style="stop-color:#D05D27"></stop>
            </linearGradient>
            <polygon fill="url(#SVGID_3_)" points="368.6,210 382.6,223.1 400.1,199.4 385.9,186.5            "></polygon>
            <g>
                <path fill="#EC8D24" d="M179.6,0C80.6,0,0,80.6,0,179.6c0,99,80.6,179.6,179.6,179.6v-19C91,340.2,19,268.1,19,179.6
                    C19,91,91,19,179.6,19V0z"></path>
            </g>
            <g>
                <linearGradient id="SVGID_4_" gradientUnits="userSpaceOnUse" x1="170.0791" y1="179.5786" x2="625.417" y2="179.5786">
                    <stop offset="1.075279e-02" style="stop-color:#EC8D24"></stop>
                    <stop offset="1" style="stop-color:#e0301e"></stop>
                </linearGradient>
                <path fill="url(#SVGID_4_)" d="M179.6,0c-5.2,0-9.5,4.3-9.5,9.5s4.3,9.5,9.5,9.5c93.1,0,130.5,55.7,177.9,126.2
                    c10.3,15.3,21,31.2,32.7,47c3.3,4.5,6.6,9,9.9,13.4c58,79,112.8,153.6,215.9,153.6c5.2,0,9.5-4.3,9.5-9.5s-4.3-9.5-9.5-9.5
                    c-93.5,0-143.1-67.6-200.6-145.8c-3.3-4.5-6.6-9-9.9-13.4c-11.4-15.5-22-31.1-32.2-46.3c-23.7-35.2-46.1-68.5-75.4-93.3
                    C264.4,13.1,226.8,0,179.6,0z"></path>
            </g>
        </g>
    </g>
</g>
</svg>